<mxfile host="65bd71144e">
    <diagram id="WBDBumG96n9q-Qm2EJxw" name="Page-1">
        <mxGraphModel dx="6597" dy="4340" grid="1" gridSize="10" guides="1" tooltips="1" connect="1" arrows="1" fold="1" page="1" pageScale="1" pageWidth="850" pageHeight="1100" math="0" shadow="0">
            <root>
                <mxCell id="0"/>
                <mxCell id="1" parent="0"/>
                <mxCell id="102" value="" style="rounded=0;whiteSpace=wrap;html=1;strokeColor=#FFFFFF;" parent="1" vertex="1">
                    <mxGeometry x="-549" y="-390" width="1300" height="2960" as="geometry"/>
                </mxCell>
                <mxCell id="118" value="" style="group;fillColor=#2a2a2a;" parent="1" vertex="1" connectable="0">
                    <mxGeometry x="-549" y="-380" width="1300" height="90" as="geometry"/>
                </mxCell>
                <mxCell id="103" value="" style="rounded=0;whiteSpace=wrap;html=1;strokeColor=#FFFFFF;" parent="118" vertex="1">
                    <mxGeometry width="1300" height="90" as="geometry"/>
                </mxCell>
                <mxCell id="104" value="" style="rounded=0;whiteSpace=wrap;html=1;strokeColor=#FFFFFF;" parent="118" vertex="1">
                    <mxGeometry x="30" y="6.923076923076923" width="630" height="76.15384615384613" as="geometry"/>
                </mxCell>
                <mxCell id="105" value="" style="rounded=0;whiteSpace=wrap;html=1;strokeColor=#FFFFFF;" parent="118" vertex="1">
                    <mxGeometry x="810" y="6.92" width="460" height="76.15" as="geometry"/>
                </mxCell>
                <mxCell id="106" value="kebab" style="rounded=0;whiteSpace=wrap;html=1;strokeColor=#FFFFFF;" parent="118" vertex="1">
                    <mxGeometry x="50" y="6.923076923076923" width="60" height="76.15384615384613" as="geometry"/>
                </mxCell>
                <mxCell id="107" value="Logo" style="rounded=0;whiteSpace=wrap;html=1;strokeColor=#FFFFFF;" parent="118" vertex="1">
                    <mxGeometry x="110" y="6.923076923076923" width="130" height="76.15384615384613" as="geometry"/>
                </mxCell>
                <mxCell id="109" value="TV" style="rounded=0;whiteSpace=wrap;html=1;strokeColor=#FFFFFF;" parent="118" vertex="1">
                    <mxGeometry x="240" y="6.923076923076923" width="70" height="76.15384615384613" as="geometry"/>
                </mxCell>
                <mxCell id="110" value="Movie" style="rounded=0;whiteSpace=wrap;html=1;strokeColor=#FFFFFF;" parent="118" vertex="1">
                    <mxGeometry x="310" y="6.923076923076923" width="70" height="76.15384615384613" as="geometry"/>
                </mxCell>
                <mxCell id="111" value="Sports" style="rounded=0;whiteSpace=wrap;html=1;strokeColor=#FFFFFF;" parent="118" vertex="1">
                    <mxGeometry x="380" y="6.923076923076923" width="70" height="76.15384615384613" as="geometry"/>
                </mxCell>
                <mxCell id="112" value="Premium" style="rounded=0;whiteSpace=wrap;html=1;strokeColor=#FFFFFF;" parent="118" vertex="1">
                    <mxGeometry x="450" y="6.923076923076923" width="70" height="76.15384615384613" as="geometry"/>
                </mxCell>
                <mxCell id="113" value="Disney+" style="rounded=0;whiteSpace=wrap;html=1;strokeColor=#FFFFFF;" parent="118" vertex="1">
                    <mxGeometry x="520" y="6.923076923076923" width="70" height="76.15384615384613" as="geometry"/>
                </mxCell>
                <mxCell id="114" value="Kids" style="rounded=0;whiteSpace=wrap;html=1;strokeColor=#FFFFFF;" parent="118" vertex="1">
                    <mxGeometry x="590" y="6.923076923076923" width="70" height="76.15384615384613" as="geometry"/>
                </mxCell>
                <mxCell id="115" value="Search" style="rounded=0;whiteSpace=wrap;html=1;strokeColor=#FFFFFF;" parent="118" vertex="1">
                    <mxGeometry x="820" y="25.961538461538456" width="240" height="38.076923076923066" as="geometry"/>
                </mxCell>
                <mxCell id="116" value="Subscribe" style="rounded=0;whiteSpace=wrap;html=1;strokeColor=#006EAF;fillColor=#1ba1e2;fontColor=#ffffff;" parent="118" vertex="1">
                    <mxGeometry x="1070" y="25.961538461538456" width="90" height="38.076923076923066" as="geometry"/>
                </mxCell>
                <mxCell id="117" value="Login" style="rounded=0;whiteSpace=wrap;html=1;strokeColor=#FFFFFF;" parent="118" vertex="1">
                    <mxGeometry x="1170" y="25.961538461538456" width="90" height="38.076923076923066" as="geometry"/>
                </mxCell>
                <mxCell id="119" value="" style="rounded=0;whiteSpace=wrap;html=1;strokeColor=#FFFFFF;" parent="1" vertex="1">
                    <mxGeometry x="-549" y="-290" width="1300" height="410" as="geometry"/>
                </mxCell>
                <mxCell id="120" value="" style="rounded=0;whiteSpace=wrap;html=1;strokeColor=#FFFFFF;" parent="1" vertex="1">
                    <mxGeometry x="-519" y="-290" width="1240" height="410" as="geometry"/>
                </mxCell>
                <mxCell id="121" value="" style="rounded=0;whiteSpace=wrap;html=1;strokeColor=#FFFFFF;" parent="1" vertex="1">
                    <mxGeometry x="-484" y="-280" width="1170" height="380" as="geometry"/>
                </mxCell>
                <mxCell id="122" value="Cover Image/Poster" style="rounded=0;whiteSpace=wrap;html=1;strokeColor=#FFFFFF;" parent="1" vertex="1">
                    <mxGeometry x="-19" y="-280" width="705" height="380" as="geometry"/>
                </mxCell>
                <mxCell id="123" value="" style="rounded=0;whiteSpace=wrap;html=1;strokeColor=#FFFFFF;" parent="1" vertex="1">
                    <mxGeometry x="-439" y="-250" width="380" height="320" as="geometry"/>
                </mxCell>
                <mxCell id="124" value="Name of the show/Movie" style="rounded=0;whiteSpace=wrap;html=1;strokeColor=#FFFFFF;" parent="1" vertex="1">
                    <mxGeometry x="-429" y="-230" width="180" height="50" as="geometry"/>
                </mxCell>
                <mxCell id="125" value="Chennel / Language / genre" style="rounded=0;whiteSpace=wrap;html=1;strokeColor=#FFFFFF;" parent="1" vertex="1">
                    <mxGeometry x="-429" y="-180" width="260" height="40" as="geometry"/>
                </mxCell>
                <mxCell id="126" value="Description" style="rounded=0;whiteSpace=wrap;html=1;strokeColor=#FFFFFF;" parent="1" vertex="1">
                    <mxGeometry x="-429" y="-140" width="310" height="130" as="geometry"/>
                </mxCell>
                <mxCell id="138" value="" style="group" parent="1" vertex="1" connectable="0">
                    <mxGeometry x="-531" y="150" width="1270" height="280" as="geometry"/>
                </mxCell>
                <mxCell id="127" value="" style="rounded=0;whiteSpace=wrap;html=1;strokeColor=#FFFFFF;" parent="138" vertex="1">
                    <mxGeometry width="1270" height="280" as="geometry"/>
                </mxCell>
                <mxCell id="128" value="&lt;font style=&quot;font-size: 14px&quot;&gt;Latest &amp;amp; Trending&lt;/font&gt;" style="rounded=0;whiteSpace=wrap;html=1;strokeColor=#FFFFFF;align=left;" parent="138" vertex="1">
                    <mxGeometry x="17" y="20" width="125" height="40" as="geometry"/>
                </mxCell>
                <mxCell id="129" value="" style="rounded=0;whiteSpace=wrap;html=1;strokeColor=#FFFFFF;" parent="138" vertex="1">
                    <mxGeometry x="17" y="70" width="1235" height="190" as="geometry"/>
                </mxCell>
                <mxCell id="130" value="&lt;font style=&quot;font-size: 18px&quot;&gt;&amp;gt;&lt;/font&gt;" style="rounded=0;whiteSpace=wrap;html=1;strokeColor=#FFFFFF;" parent="138" vertex="1">
                    <mxGeometry x="1222" y="70" width="30" height="190" as="geometry"/>
                </mxCell>
                <mxCell id="131" value="Poster" style="rounded=0;whiteSpace=wrap;html=1;strokeColor=#FFFFFF;" parent="138" vertex="1">
                    <mxGeometry x="17.5" y="70" width="154.5" height="190" as="geometry"/>
                </mxCell>
                <mxCell id="132" value="Poster" style="rounded=0;whiteSpace=wrap;html=1;strokeColor=#FFFFFF;" parent="138" vertex="1">
                    <mxGeometry x="1067.5" y="70" width="154.5" height="190" as="geometry"/>
                </mxCell>
                <mxCell id="133" value="Poster" style="rounded=0;whiteSpace=wrap;html=1;strokeColor=#FFFFFF;" parent="138" vertex="1">
                    <mxGeometry x="542" y="70" width="154.5" height="190" as="geometry"/>
                </mxCell>
                <mxCell id="134" value="Poster" style="rounded=0;whiteSpace=wrap;html=1;strokeColor=#FFFFFF;" parent="138" vertex="1">
                    <mxGeometry x="192" y="70" width="154.5" height="190" as="geometry"/>
                </mxCell>
                <mxCell id="135" value="Poster" style="rounded=0;whiteSpace=wrap;html=1;strokeColor=#FFFFFF;" parent="138" vertex="1">
                    <mxGeometry x="367" y="70" width="154.5" height="190" as="geometry"/>
                </mxCell>
                <mxCell id="136" value="Poster" style="rounded=0;whiteSpace=wrap;html=1;strokeColor=#FFFFFF;" parent="138" vertex="1">
                    <mxGeometry x="717" y="70" width="154.5" height="190" as="geometry"/>
                </mxCell>
                <mxCell id="137" value="Poster" style="rounded=0;whiteSpace=wrap;html=1;strokeColor=#FFFFFF;" parent="138" vertex="1">
                    <mxGeometry x="891" y="70" width="154.5" height="190" as="geometry"/>
                </mxCell>
                <mxCell id="139" value="" style="group" parent="1" vertex="1" connectable="0">
                    <mxGeometry x="-529" y="450" width="1270" height="280" as="geometry"/>
                </mxCell>
                <mxCell id="140" value="" style="rounded=0;whiteSpace=wrap;html=1;strokeColor=#FFFFFF;" parent="139" vertex="1">
                    <mxGeometry width="1270" height="280" as="geometry"/>
                </mxCell>
                <mxCell id="141" value="&lt;font style=&quot;font-size: 14px&quot;&gt;Popular Shows&lt;/font&gt;" style="rounded=0;whiteSpace=wrap;html=1;strokeColor=#FFFFFF;align=left;" parent="139" vertex="1">
                    <mxGeometry x="17" y="20" width="125" height="40" as="geometry"/>
                </mxCell>
                <mxCell id="142" value="" style="rounded=0;whiteSpace=wrap;html=1;strokeColor=#FFFFFF;" parent="139" vertex="1">
                    <mxGeometry x="17" y="70" width="1235" height="190" as="geometry"/>
                </mxCell>
                <mxCell id="143" value="&lt;font style=&quot;font-size: 18px&quot;&gt;&amp;gt;&lt;/font&gt;" style="rounded=0;whiteSpace=wrap;html=1;strokeColor=#FFFFFF;" parent="139" vertex="1">
                    <mxGeometry x="1222" y="70" width="30" height="190" as="geometry"/>
                </mxCell>
                <mxCell id="144" value="Poster" style="rounded=0;whiteSpace=wrap;html=1;strokeColor=#FFFFFF;" parent="139" vertex="1">
                    <mxGeometry x="17.5" y="70" width="154.5" height="190" as="geometry"/>
                </mxCell>
                <mxCell id="145" value="Poster" style="rounded=0;whiteSpace=wrap;html=1;strokeColor=#FFFFFF;" parent="139" vertex="1">
                    <mxGeometry x="1067.5" y="70" width="154.5" height="190" as="geometry"/>
                </mxCell>
                <mxCell id="146" value="Poster" style="rounded=0;whiteSpace=wrap;html=1;strokeColor=#FFFFFF;" parent="139" vertex="1">
                    <mxGeometry x="542" y="70" width="154.5" height="190" as="geometry"/>
                </mxCell>
                <mxCell id="147" value="Poster" style="rounded=0;whiteSpace=wrap;html=1;strokeColor=#FFFFFF;" parent="139" vertex="1">
                    <mxGeometry x="192" y="70" width="154.5" height="190" as="geometry"/>
                </mxCell>
                <mxCell id="148" value="Poster" style="rounded=0;whiteSpace=wrap;html=1;strokeColor=#FFFFFF;" parent="139" vertex="1">
                    <mxGeometry x="367" y="70" width="154.5" height="190" as="geometry"/>
                </mxCell>
                <mxCell id="149" value="Poster" style="rounded=0;whiteSpace=wrap;html=1;strokeColor=#FFFFFF;" parent="139" vertex="1">
                    <mxGeometry x="717" y="70" width="154.5" height="190" as="geometry"/>
                </mxCell>
                <mxCell id="150" value="Poster" style="rounded=0;whiteSpace=wrap;html=1;strokeColor=#FFFFFF;" parent="139" vertex="1">
                    <mxGeometry x="891" y="70" width="154.5" height="190" as="geometry"/>
                </mxCell>
                <mxCell id="151" value="" style="group" parent="1" vertex="1" connectable="0">
                    <mxGeometry x="-529" y="750" width="1298" height="620" as="geometry"/>
                </mxCell>
                <mxCell id="152" value="" style="rounded=0;whiteSpace=wrap;html=1;strokeColor=#FFFFFF;" parent="151" vertex="1">
                    <mxGeometry width="1270" height="280" as="geometry"/>
                </mxCell>
                <mxCell id="153" value="&lt;font style=&quot;font-size: 14px&quot;&gt;Movies Recommended For You&lt;/font&gt;" style="rounded=0;whiteSpace=wrap;html=1;strokeColor=#FFFFFF;align=left;" parent="151" vertex="1">
                    <mxGeometry x="17" y="20" width="223" height="40" as="geometry"/>
                </mxCell>
                <mxCell id="154" value="" style="rounded=0;whiteSpace=wrap;html=1;strokeColor=#FFFFFF;" parent="151" vertex="1">
                    <mxGeometry x="17" y="70" width="1235" height="190" as="geometry"/>
                </mxCell>
                <mxCell id="155" value="&lt;font style=&quot;font-size: 18px&quot;&gt;&amp;gt;&lt;/font&gt;" style="rounded=0;whiteSpace=wrap;html=1;strokeColor=#FFFFFF;" parent="151" vertex="1">
                    <mxGeometry x="1222" y="70" width="30" height="190" as="geometry"/>
                </mxCell>
                <mxCell id="156" value="Poster" style="rounded=0;whiteSpace=wrap;html=1;strokeColor=#FFFFFF;" parent="151" vertex="1">
                    <mxGeometry x="17.5" y="70" width="154.5" height="190" as="geometry"/>
                </mxCell>
                <mxCell id="157" value="Poster" style="rounded=0;whiteSpace=wrap;html=1;strokeColor=#FFFFFF;" parent="151" vertex="1">
                    <mxGeometry x="1067.5" y="70" width="154.5" height="190" as="geometry"/>
                </mxCell>
                <mxCell id="158" value="Poster" style="rounded=0;whiteSpace=wrap;html=1;strokeColor=#FFFFFF;" parent="151" vertex="1">
                    <mxGeometry x="542" y="70" width="154.5" height="190" as="geometry"/>
                </mxCell>
                <mxCell id="159" value="Poster" style="rounded=0;whiteSpace=wrap;html=1;strokeColor=#FFFFFF;" parent="151" vertex="1">
                    <mxGeometry x="192" y="70" width="154.5" height="190" as="geometry"/>
                </mxCell>
                <mxCell id="160" value="Poster" style="rounded=0;whiteSpace=wrap;html=1;strokeColor=#FFFFFF;" parent="151" vertex="1">
                    <mxGeometry x="367" y="70" width="154.5" height="190" as="geometry"/>
                </mxCell>
                <mxCell id="161" value="Poster" style="rounded=0;whiteSpace=wrap;html=1;strokeColor=#FFFFFF;" parent="151" vertex="1">
                    <mxGeometry x="717" y="70" width="154.5" height="190" as="geometry"/>
                </mxCell>
                <mxCell id="162" value="Poster" style="rounded=0;whiteSpace=wrap;html=1;strokeColor=#FFFFFF;" parent="151" vertex="1">
                    <mxGeometry x="891" y="70" width="154.5" height="190" as="geometry"/>
                </mxCell>
                <mxCell id="163" value="" style="group" parent="151" vertex="1" connectable="0">
                    <mxGeometry y="300" width="1270" height="320" as="geometry"/>
                </mxCell>
                <mxCell id="164" value="" style="rounded=0;whiteSpace=wrap;html=1;strokeColor=#FFFFFF;" parent="163" vertex="1">
                    <mxGeometry width="1270" height="280" as="geometry"/>
                </mxCell>
                <mxCell id="165" value="&lt;font style=&quot;font-size: 14px&quot;&gt;Shows Recommended For You&lt;/font&gt;" style="rounded=0;whiteSpace=wrap;html=1;strokeColor=#FFFFFF;align=left;" parent="163" vertex="1">
                    <mxGeometry x="17" y="20" width="213" height="40" as="geometry"/>
                </mxCell>
                <mxCell id="166" value="" style="rounded=0;whiteSpace=wrap;html=1;strokeColor=#FFFFFF;" parent="163" vertex="1">
                    <mxGeometry x="17" y="70" width="1235" height="190" as="geometry"/>
                </mxCell>
                <mxCell id="167" value="&lt;font style=&quot;font-size: 18px&quot;&gt;&amp;gt;&lt;/font&gt;" style="rounded=0;whiteSpace=wrap;html=1;strokeColor=#FFFFFF;" parent="163" vertex="1">
                    <mxGeometry x="1222" y="70" width="30" height="190" as="geometry"/>
                </mxCell>
                <mxCell id="168" value="Poster" style="rounded=0;whiteSpace=wrap;html=1;strokeColor=#FFFFFF;" parent="163" vertex="1">
                    <mxGeometry x="17.5" y="70" width="154.5" height="190" as="geometry"/>
                </mxCell>
                <mxCell id="169" value="Poster" style="rounded=0;whiteSpace=wrap;html=1;strokeColor=#FFFFFF;" parent="163" vertex="1">
                    <mxGeometry x="1067.5" y="70" width="154.5" height="190" as="geometry"/>
                </mxCell>
                <mxCell id="170" value="Poster" style="rounded=0;whiteSpace=wrap;html=1;strokeColor=#FFFFFF;" parent="163" vertex="1">
                    <mxGeometry x="542" y="70" width="154.5" height="190" as="geometry"/>
                </mxCell>
                <mxCell id="171" value="Poster" style="rounded=0;whiteSpace=wrap;html=1;strokeColor=#FFFFFF;" parent="163" vertex="1">
                    <mxGeometry x="192" y="70" width="154.5" height="190" as="geometry"/>
                </mxCell>
                <mxCell id="172" value="Poster" style="rounded=0;whiteSpace=wrap;html=1;strokeColor=#FFFFFF;" parent="163" vertex="1">
                    <mxGeometry x="367" y="70" width="154.5" height="190" as="geometry"/>
                </mxCell>
                <mxCell id="173" value="Poster" style="rounded=0;whiteSpace=wrap;html=1;strokeColor=#FFFFFF;" parent="163" vertex="1">
                    <mxGeometry x="717" y="70" width="154.5" height="190" as="geometry"/>
                </mxCell>
                <mxCell id="174" value="Poster" style="rounded=0;whiteSpace=wrap;html=1;strokeColor=#FFFFFF;" parent="163" vertex="1">
                    <mxGeometry x="891" y="70" width="154.5" height="190" as="geometry"/>
                </mxCell>
                <mxCell id="175" value="" style="group" parent="163" vertex="1" connectable="0">
                    <mxGeometry y="300" width="1270" height="280" as="geometry"/>
                </mxCell>
                <mxCell id="176" value="" style="rounded=0;whiteSpace=wrap;html=1;strokeColor=#FFFFFF;" parent="175" vertex="1">
                    <mxGeometry width="1270" height="280" as="geometry"/>
                </mxCell>
                <mxCell id="177" value="&lt;font style=&quot;font-size: 14px&quot;&gt;Popular Movies&lt;/font&gt;" style="rounded=0;whiteSpace=wrap;html=1;strokeColor=#FFFFFF;align=left;" parent="175" vertex="1">
                    <mxGeometry x="17" y="20" width="125" height="40" as="geometry"/>
                </mxCell>
                <mxCell id="178" value="" style="rounded=0;whiteSpace=wrap;html=1;strokeColor=#FFFFFF;" parent="175" vertex="1">
                    <mxGeometry x="17" y="70" width="1235" height="190" as="geometry"/>
                </mxCell>
                <mxCell id="179" value="&lt;font style=&quot;font-size: 18px&quot;&gt;&amp;gt;&lt;/font&gt;" style="rounded=0;whiteSpace=wrap;html=1;strokeColor=#FFFFFF;" parent="175" vertex="1">
                    <mxGeometry x="1222" y="70" width="30" height="190" as="geometry"/>
                </mxCell>
                <mxCell id="180" value="Poster" style="rounded=0;whiteSpace=wrap;html=1;strokeColor=#FFFFFF;" parent="175" vertex="1">
                    <mxGeometry x="17.5" y="70" width="154.5" height="190" as="geometry"/>
                </mxCell>
                <mxCell id="181" value="Poster" style="rounded=0;whiteSpace=wrap;html=1;strokeColor=#FFFFFF;" parent="175" vertex="1">
                    <mxGeometry x="1067.5" y="70" width="154.5" height="190" as="geometry"/>
                </mxCell>
                <mxCell id="182" value="Poster" style="rounded=0;whiteSpace=wrap;html=1;strokeColor=#FFFFFF;" parent="175" vertex="1">
                    <mxGeometry x="542" y="70" width="154.5" height="190" as="geometry"/>
                </mxCell>
                <mxCell id="183" value="Poster" style="rounded=0;whiteSpace=wrap;html=1;strokeColor=#FFFFFF;" parent="175" vertex="1">
                    <mxGeometry x="192" y="70" width="154.5" height="190" as="geometry"/>
                </mxCell>
                <mxCell id="184" value="Poster" style="rounded=0;whiteSpace=wrap;html=1;strokeColor=#FFFFFF;" parent="175" vertex="1">
                    <mxGeometry x="367" y="70" width="154.5" height="190" as="geometry"/>
                </mxCell>
                <mxCell id="185" value="Poster" style="rounded=0;whiteSpace=wrap;html=1;strokeColor=#FFFFFF;" parent="175" vertex="1">
                    <mxGeometry x="717" y="70" width="154.5" height="190" as="geometry"/>
                </mxCell>
                <mxCell id="186" value="Poster" style="rounded=0;whiteSpace=wrap;html=1;strokeColor=#FFFFFF;" parent="175" vertex="1">
                    <mxGeometry x="891" y="70" width="154.5" height="190" as="geometry"/>
                </mxCell>
                <mxCell id="187" value="" style="group" parent="1" vertex="1" connectable="0">
                    <mxGeometry x="-529" y="1650" width="1270" height="280" as="geometry"/>
                </mxCell>
                <mxCell id="188" value="" style="rounded=0;whiteSpace=wrap;html=1;strokeColor=#FFFFFF;" parent="187" vertex="1">
                    <mxGeometry width="1270" height="280" as="geometry"/>
                </mxCell>
                <mxCell id="189" value="&lt;font style=&quot;font-size: 14px&quot;&gt;New on Disney+ Hotstar&lt;/font&gt;" style="rounded=0;whiteSpace=wrap;html=1;strokeColor=#FFFFFF;align=left;" parent="187" vertex="1">
                    <mxGeometry x="17" y="20" width="193" height="40" as="geometry"/>
                </mxCell>
                <mxCell id="190" value="" style="rounded=0;whiteSpace=wrap;html=1;strokeColor=#FFFFFF;" parent="187" vertex="1">
                    <mxGeometry x="17" y="70" width="1235" height="190" as="geometry"/>
                </mxCell>
                <mxCell id="191" value="&lt;font style=&quot;font-size: 18px&quot;&gt;&amp;gt;&lt;/font&gt;" style="rounded=0;whiteSpace=wrap;html=1;strokeColor=#FFFFFF;" parent="187" vertex="1">
                    <mxGeometry x="1222" y="70" width="30" height="190" as="geometry"/>
                </mxCell>
                <mxCell id="192" value="Poster" style="rounded=0;whiteSpace=wrap;html=1;strokeColor=#FFFFFF;" parent="187" vertex="1">
                    <mxGeometry x="17.5" y="70" width="154.5" height="190" as="geometry"/>
                </mxCell>
                <mxCell id="193" value="Poster" style="rounded=0;whiteSpace=wrap;html=1;strokeColor=#FFFFFF;" parent="187" vertex="1">
                    <mxGeometry x="1067.5" y="70" width="154.5" height="190" as="geometry"/>
                </mxCell>
                <mxCell id="194" value="Poster" style="rounded=0;whiteSpace=wrap;html=1;strokeColor=#FFFFFF;" parent="187" vertex="1">
                    <mxGeometry x="542" y="70" width="154.5" height="190" as="geometry"/>
                </mxCell>
                <mxCell id="195" value="Poster" style="rounded=0;whiteSpace=wrap;html=1;strokeColor=#FFFFFF;" parent="187" vertex="1">
                    <mxGeometry x="192" y="70" width="154.5" height="190" as="geometry"/>
                </mxCell>
                <mxCell id="196" value="Poster" style="rounded=0;whiteSpace=wrap;html=1;strokeColor=#FFFFFF;" parent="187" vertex="1">
                    <mxGeometry x="367" y="70" width="154.5" height="190" as="geometry"/>
                </mxCell>
                <mxCell id="197" value="Poster" style="rounded=0;whiteSpace=wrap;html=1;strokeColor=#FFFFFF;" parent="187" vertex="1">
                    <mxGeometry x="717" y="70" width="154.5" height="190" as="geometry"/>
                </mxCell>
                <mxCell id="198" value="Poster" style="rounded=0;whiteSpace=wrap;html=1;strokeColor=#FFFFFF;" parent="187" vertex="1">
                    <mxGeometry x="891" y="70" width="154.5" height="190" as="geometry"/>
                </mxCell>
                <mxCell id="199" value="" style="group" parent="1" vertex="1" connectable="0">
                    <mxGeometry x="-529" y="1950" width="1282.5" height="180" as="geometry"/>
                </mxCell>
                <mxCell id="200" value="" style="rounded=0;whiteSpace=wrap;html=1;strokeColor=#FFFFFF;" parent="199" vertex="1">
                    <mxGeometry width="1270" height="180" as="geometry"/>
                </mxCell>
                <mxCell id="201" value="&lt;font style=&quot;font-size: 14px&quot;&gt;Best in Sports&lt;/font&gt;" style="rounded=0;whiteSpace=wrap;html=1;strokeColor=#FFFFFF;align=left;" parent="199" vertex="1">
                    <mxGeometry x="17" y="12.857142857142856" width="193" height="25.71428571428571" as="geometry"/>
                </mxCell>
                <mxCell id="202" value="" style="rounded=0;whiteSpace=wrap;html=1;strokeColor=#FFFFFF;" parent="199" vertex="1">
                    <mxGeometry x="17" y="45" width="1235" height="122.14285714285712" as="geometry"/>
                </mxCell>
                <mxCell id="203" value="&lt;font style=&quot;font-size: 18px&quot;&gt;&amp;gt;&lt;/font&gt;" style="rounded=0;whiteSpace=wrap;html=1;strokeColor=#FFFFFF;" parent="199" vertex="1">
                    <mxGeometry x="1222" y="45" width="30" height="122.14285714285712" as="geometry"/>
                </mxCell>
                <mxCell id="204" value="Poster" style="rounded=0;whiteSpace=wrap;html=1;strokeColor=#FFFFFF;" parent="199" vertex="1">
                    <mxGeometry x="17.5" y="45" width="242.5" height="122.14" as="geometry"/>
                </mxCell>
                <mxCell id="215" value="Poster" style="rounded=0;whiteSpace=wrap;html=1;strokeColor=#FFFFFF;" parent="199" vertex="1">
                    <mxGeometry x="274" y="45" width="242.5" height="122.14" as="geometry"/>
                </mxCell>
                <mxCell id="216" value="Poster" style="rounded=0;whiteSpace=wrap;html=1;strokeColor=#FFFFFF;" parent="199" vertex="1">
                    <mxGeometry x="528" y="45" width="242.5" height="122.14" as="geometry"/>
                </mxCell>
                <mxCell id="217" value="Poster" style="rounded=0;whiteSpace=wrap;html=1;strokeColor=#FFFFFF;" parent="199" vertex="1">
                    <mxGeometry x="785" y="45" width="242.5" height="122.14" as="geometry"/>
                </mxCell>
                <mxCell id="218" value="Poster" style="rounded=0;whiteSpace=wrap;html=1;strokeColor=#FFFFFF;" parent="199" vertex="1">
                    <mxGeometry x="1040" y="45" width="180" height="122.14" as="geometry"/>
                </mxCell>
                <mxCell id="219" value="" style="group" parent="1" vertex="1" connectable="0">
                    <mxGeometry x="-529" y="2150" width="1282.5" height="180" as="geometry"/>
                </mxCell>
                <mxCell id="220" value="" style="rounded=0;whiteSpace=wrap;html=1;strokeColor=#FFFFFF;" parent="219" vertex="1">
                    <mxGeometry width="1270" height="180" as="geometry"/>
                </mxCell>
                <mxCell id="221" value="&lt;font style=&quot;font-size: 14px&quot;&gt;Follow the Blues&lt;/font&gt;" style="rounded=0;whiteSpace=wrap;html=1;strokeColor=#FFFFFF;align=left;" parent="219" vertex="1">
                    <mxGeometry x="17" y="12.857142857142856" width="193" height="25.71428571428571" as="geometry"/>
                </mxCell>
                <mxCell id="222" value="" style="rounded=0;whiteSpace=wrap;html=1;strokeColor=#FFFFFF;" parent="219" vertex="1">
                    <mxGeometry x="17" y="45" width="1235" height="122.14285714285712" as="geometry"/>
                </mxCell>
                <mxCell id="223" value="&lt;font style=&quot;font-size: 18px&quot;&gt;&amp;gt;&lt;/font&gt;" style="rounded=0;whiteSpace=wrap;html=1;strokeColor=#FFFFFF;" parent="219" vertex="1">
                    <mxGeometry x="1222" y="45" width="30" height="122.14285714285712" as="geometry"/>
                </mxCell>
                <mxCell id="224" value="Poster" style="rounded=0;whiteSpace=wrap;html=1;strokeColor=#FFFFFF;" parent="219" vertex="1">
                    <mxGeometry x="17.5" y="45" width="242.5" height="122.14" as="geometry"/>
                </mxCell>
                <mxCell id="225" value="Poster" style="rounded=0;whiteSpace=wrap;html=1;strokeColor=#FFFFFF;" parent="219" vertex="1">
                    <mxGeometry x="274" y="45" width="242.5" height="122.14" as="geometry"/>
                </mxCell>
                <mxCell id="226" value="Poster" style="rounded=0;whiteSpace=wrap;html=1;strokeColor=#FFFFFF;" parent="219" vertex="1">
                    <mxGeometry x="528" y="45" width="242.5" height="122.14" as="geometry"/>
                </mxCell>
                <mxCell id="227" value="Poster" style="rounded=0;whiteSpace=wrap;html=1;strokeColor=#FFFFFF;" parent="219" vertex="1">
                    <mxGeometry x="785" y="45" width="242.5" height="122.14" as="geometry"/>
                </mxCell>
                <mxCell id="228" value="Poster" style="rounded=0;whiteSpace=wrap;html=1;strokeColor=#FFFFFF;" parent="219" vertex="1">
                    <mxGeometry x="1040" y="45" width="180" height="122.14" as="geometry"/>
                </mxCell>
                <mxCell id="339" value="" style="edgeStyle=orthogonalEdgeStyle;rounded=0;orthogonalLoop=1;jettySize=auto;html=1;fontColor=#121212;strokeColor=#FFFFFF;exitX=-0.002;exitY=0.139;exitDx=0;exitDy=0;exitPerimeter=0;" edge="1" parent="1" source="230" target="338">
                    <mxGeometry relative="1" as="geometry"/>
                </mxCell>
                <mxCell id="230" value="" style="rounded=0;whiteSpace=wrap;html=1;strokeColor=#FFFFFF;" parent="1" vertex="1">
                    <mxGeometry x="-529" y="2370" width="1270" height="180" as="geometry"/>
                </mxCell>
                <mxCell id="239" value="" style="rounded=0;whiteSpace=wrap;html=1;strokeColor=#FFFFFF;" parent="1" vertex="1">
                    <mxGeometry x="-529" y="2420" width="1270" height="130" as="geometry"/>
                </mxCell>
                <mxCell id="341" value="" style="edgeStyle=orthogonalEdgeStyle;rounded=0;orthogonalLoop=1;jettySize=auto;html=1;fontColor=#121212;strokeColor=#FFFFFF;" edge="1" parent="1" source="243" target="340">
                    <mxGeometry relative="1" as="geometry"/>
                </mxCell>
                <mxCell id="243" value="" style="rounded=0;whiteSpace=wrap;html=1;strokeColor=#FFFFFF;" parent="1" vertex="1">
                    <mxGeometry x="-529" y="2420" width="750" height="130" as="geometry"/>
                </mxCell>
                <mxCell id="244" value="" style="rounded=0;whiteSpace=wrap;html=1;strokeColor=#FFFFFF;" parent="1" vertex="1">
                    <mxGeometry x="221" y="2420" width="190" height="130" as="geometry"/>
                </mxCell>
                <mxCell id="343" value="" style="edgeStyle=orthogonalEdgeStyle;rounded=0;orthogonalLoop=1;jettySize=auto;html=1;fontColor=#121212;strokeColor=#FFFFFF;" edge="1" parent="1" source="245" target="342">
                    <mxGeometry relative="1" as="geometry"/>
                </mxCell>
                <mxCell id="245" value="" style="rounded=0;whiteSpace=wrap;html=1;strokeColor=#FFFFFF;" parent="1" vertex="1">
                    <mxGeometry x="411" y="2420" width="330" height="130" as="geometry"/>
                </mxCell>
                <mxCell id="246" value="" style="rounded=0;whiteSpace=wrap;html=1;strokeColor=#FFFFFF;" parent="1" vertex="1">
                    <mxGeometry x="-529" y="2420" width="750" height="40" as="geometry"/>
                </mxCell>
                <mxCell id="247" value="About Disney+ Hotstar" style="rounded=0;whiteSpace=wrap;html=1;strokeColor=#FFFFFF;" parent="1" vertex="1">
                    <mxGeometry x="-529" y="2420" width="140" height="40" as="geometry"/>
                </mxCell>
                <mxCell id="248" value="Terms of Use" style="rounded=0;whiteSpace=wrap;html=1;strokeColor=#FFFFFF;" parent="1" vertex="1">
                    <mxGeometry x="-379" y="2420" width="80" height="40" as="geometry"/>
                </mxCell>
                <mxCell id="249" value="Privacy Policy" style="rounded=0;whiteSpace=wrap;html=1;strokeColor=#FFFFFF;" parent="1" vertex="1">
                    <mxGeometry x="-289" y="2420" width="80" height="40" as="geometry"/>
                </mxCell>
                <mxCell id="250" value="FAQ" style="rounded=0;whiteSpace=wrap;html=1;strokeColor=#FFFFFF;" parent="1" vertex="1">
                    <mxGeometry x="-199" y="2420" width="40" height="40" as="geometry"/>
                </mxCell>
                <mxCell id="251" value="Feedback" style="rounded=0;whiteSpace=wrap;html=1;strokeColor=#FFFFFF;" parent="1" vertex="1">
                    <mxGeometry x="-149" y="2420" width="70" height="40" as="geometry"/>
                </mxCell>
                <mxCell id="252" value="Careers" style="rounded=0;whiteSpace=wrap;html=1;strokeColor=#FFFFFF;" parent="1" vertex="1">
                    <mxGeometry x="-69" y="2420" width="70" height="40" as="geometry"/>
                </mxCell>
                <mxCell id="253" value="&lt;span style=&quot;color: rgb(218 , 218 , 218) ; font-family: &amp;#34;roboto&amp;#34; , , sans-serif ; background-color: rgb(12 , 17 , 27)&quot;&gt;&lt;font style=&quot;font-size: 14px&quot;&gt;© 2021 STAR. All Rights Reserved. HBO, Home Box Office and all related channel and programming logos are service marks of, and all related programming visuals and elements are the property of, Home Box Office, Inc. All rights reserved.&lt;/font&gt;&lt;/span&gt;" style="rounded=0;whiteSpace=wrap;html=1;strokeColor=#FFFFFF;align=left;" parent="1" vertex="1">
                    <mxGeometry x="-529" y="2460" width="640" height="90" as="geometry"/>
                </mxCell>
                <mxCell id="255" value="" style="rounded=0;whiteSpace=wrap;html=1;strokeColor=#FFFFFF;" parent="1" vertex="1">
                    <mxGeometry x="238.5" y="2420" width="152.5" height="90" as="geometry"/>
                </mxCell>
                <mxCell id="256" value="Connect with us" style="rounded=0;whiteSpace=wrap;html=1;strokeColor=#FFFFFF;" parent="1" vertex="1">
                    <mxGeometry x="238.5" y="2420" width="152.5" height="40" as="geometry"/>
                </mxCell>
                <mxCell id="257" value="Fb" style="rounded=0;whiteSpace=wrap;html=1;strokeColor=#FFFFFF;" parent="1" vertex="1">
                    <mxGeometry x="238.5" y="2460" width="52.5" height="50" as="geometry"/>
                </mxCell>
                <mxCell id="258" value="Twitter" style="rounded=0;whiteSpace=wrap;html=1;strokeColor=#FFFFFF;" parent="1" vertex="1">
                    <mxGeometry x="288.5" y="2460" width="52.5" height="50" as="geometry"/>
                </mxCell>
                <mxCell id="259" value="" style="rounded=0;whiteSpace=wrap;html=1;strokeColor=#FFFFFF;" parent="1" vertex="1">
                    <mxGeometry x="481" y="2420" width="260" height="90" as="geometry"/>
                </mxCell>
                <mxCell id="260" value="Disney+ Hotstar App" style="rounded=0;whiteSpace=wrap;html=1;strokeColor=#FFFFFF;align=left;" parent="1" vertex="1">
                    <mxGeometry x="481" y="2420" width="260" height="30" as="geometry"/>
                </mxCell>
                <mxCell id="262" value="Download on the AppStore" style="rounded=0;whiteSpace=wrap;html=1;strokeColor=#FFFFFF;" parent="1" vertex="1">
                    <mxGeometry x="611" y="2460" width="130" height="40" as="geometry"/>
                </mxCell>
                <mxCell id="263" value="Get it on Google Play" style="rounded=0;whiteSpace=wrap;html=1;strokeColor=#FFFFFF;" parent="1" vertex="1">
                    <mxGeometry x="481" y="2460" width="130" height="40" as="geometry"/>
                </mxCell>
                <mxCell id="265" value="&lt;font style=&quot;font-size: 24px&quot;&gt;Requirements&lt;/font&gt;" style="rounded=0;whiteSpace=wrap;html=1;" parent="1" vertex="1">
                    <mxGeometry x="361" y="-1028" width="500" height="50" as="geometry"/>
                </mxCell>
                <mxCell id="266" value="&lt;font style=&quot;font-size: 24px&quot;&gt;* Display latest/trending shows and movies/TV&lt;br&gt;* Catalogue for shows/movies/tv (slider/carousel type)&lt;br&gt;* Watch Live TV&lt;br&gt;* Multiple Languages and genres&lt;br&gt;* Subscription&lt;br&gt;* Search&amp;nbsp;&lt;br&gt;* Login/Signup&lt;br&gt;&lt;/font&gt;" style="rounded=0;whiteSpace=wrap;html=1;align=left;" parent="1" vertex="1">
                    <mxGeometry x="361" y="-978" width="500" height="320" as="geometry"/>
                </mxCell>
                <mxCell id="267" value="&lt;font style=&quot;font-size: 24px&quot;&gt;&lt;br&gt;&lt;/font&gt;" style="rounded=0;whiteSpace=wrap;html=1;align=left;fillColor=#FFFFFF;" parent="1" vertex="1">
                    <mxGeometry x="950" y="-980" width="680" height="730" as="geometry"/>
                </mxCell>
                <mxCell id="268" value="&lt;font style=&quot;font-size: 24px&quot;&gt;Color Palette&lt;/font&gt;" style="rounded=0;whiteSpace=wrap;html=1;" parent="1" vertex="1">
                    <mxGeometry x="950" y="-1030" width="680" height="50" as="geometry"/>
                </mxCell>
                <mxCell id="269" value="" style="rounded=0;whiteSpace=wrap;html=1;fillColor=#141a28;strokeColor=#141a28;" parent="1" vertex="1">
                    <mxGeometry x="1035" y="-960" width="90" height="60" as="geometry"/>
                </mxCell>
                <mxCell id="292" value="" style="edgeStyle=orthogonalEdgeStyle;rounded=0;orthogonalLoop=1;jettySize=auto;html=1;strokeColor=#000000;" parent="1" source="270" target="291" edge="1">
                    <mxGeometry relative="1" as="geometry"/>
                </mxCell>
                <mxCell id="270" value="&lt;p&gt;&lt;span style=&quot;color: rgb(241 , 70 , 104) ; font-size: 14px&quot;&gt;&lt;b&gt;#141a28&lt;/b&gt;&lt;/span&gt;&lt;/p&gt;" style="rounded=0;whiteSpace=wrap;html=1;strokeColor=#141A28;fillColor=#FFFFFF;" parent="1" vertex="1">
                    <mxGeometry x="1125" y="-960" width="240" height="60" as="geometry"/>
                </mxCell>
                <mxCell id="271" value="" style="rounded=0;whiteSpace=wrap;html=1;fillColor=#1f80e0;strokeColor=#1f80e0;" parent="1" vertex="1">
                    <mxGeometry x="1035" y="-880" width="90" height="60" as="geometry"/>
                </mxCell>
                <mxCell id="294" value="" style="edgeStyle=orthogonalEdgeStyle;rounded=0;orthogonalLoop=1;jettySize=auto;html=1;strokeColor=#000000;" parent="1" source="272" target="293" edge="1">
                    <mxGeometry relative="1" as="geometry"/>
                </mxCell>
                <mxCell id="272" value="&lt;p&gt;&lt;b&gt;&lt;span style=&quot;color: rgb(241 , 70 , 104) ; font-size: 14px ; font-style: normal ; letter-spacing: normal ; text-align: center ; text-indent: 0px ; text-transform: none ; word-spacing: 0px ; display: inline ; float: none&quot;&gt;#1f80e0&lt;/span&gt;&lt;/b&gt;&lt;/p&gt;" style="rounded=0;whiteSpace=wrap;html=1;strokeColor=#1f80e0;fillColor=#FFFFFF;" parent="1" vertex="1">
                    <mxGeometry x="1125" y="-880" width="240" height="60" as="geometry"/>
                </mxCell>
                <mxCell id="273" value="" style="rounded=0;whiteSpace=wrap;html=1;fillColor=#192133;strokeColor=#192133;" parent="1" vertex="1">
                    <mxGeometry x="1035" y="-800" width="90" height="60" as="geometry"/>
                </mxCell>
                <mxCell id="315" value="" style="edgeStyle=orthogonalEdgeStyle;rounded=0;orthogonalLoop=1;jettySize=auto;html=1;strokeColor=#000000;" edge="1" parent="1" source="274" target="314">
                    <mxGeometry relative="1" as="geometry"/>
                </mxCell>
                <mxCell id="274" value="&lt;p&gt;&lt;span style=&quot;color: rgb(241 , 70 , 104) ; font-size: 14px&quot;&gt;&lt;b&gt;#192133&lt;/b&gt;&lt;/span&gt;&lt;/p&gt;" style="rounded=0;whiteSpace=wrap;html=1;fillColor=#FFFFFF;strokeColor=#192133;" parent="1" vertex="1">
                    <mxGeometry x="1125" y="-800" width="240" height="60" as="geometry"/>
                </mxCell>
                <mxCell id="275" value="" style="rounded=0;whiteSpace=wrap;html=1;strokeColor=#030b17;fillColor=#030B17;" parent="1" vertex="1">
                    <mxGeometry x="1035" y="-718" width="90" height="60" as="geometry"/>
                </mxCell>
                <mxCell id="290" value="" style="edgeStyle=orthogonalEdgeStyle;rounded=0;orthogonalLoop=1;jettySize=auto;html=1;strokeColor=#000000;" parent="1" source="276" target="289" edge="1">
                    <mxGeometry relative="1" as="geometry"/>
                </mxCell>
                <mxCell id="276" value="&lt;b&gt;\&lt;span style=&quot;color: rgb(241 , 70 , 104) ; font-size: 14px ; font-style: normal ; letter-spacing: normal ; text-align: center ; text-indent: 0px ; text-transform: none ; word-spacing: 0px ; display: inline ; float: none&quot;&gt;#030b17&lt;/span&gt;&lt;br&gt;&lt;/b&gt;" style="rounded=0;whiteSpace=wrap;html=1;fillColor=#FFFFFF;strokeColor=#030b17;" parent="1" vertex="1">
                    <mxGeometry x="1125" y="-718" width="240" height="60" as="geometry"/>
                </mxCell>
                <mxCell id="277" value="" style="rounded=0;whiteSpace=wrap;html=1;strokeColor=#bfc0c4;fillColor=#bfc0c4;" parent="1" vertex="1">
                    <mxGeometry x="1035" y="-640" width="90" height="60" as="geometry"/>
                </mxCell>
                <mxCell id="286" value="" style="edgeStyle=orthogonalEdgeStyle;rounded=0;orthogonalLoop=1;jettySize=auto;html=1;strokeColor=#000000;" parent="1" source="278" target="285" edge="1">
                    <mxGeometry relative="1" as="geometry"/>
                </mxCell>
                <mxCell id="278" value="&lt;p&gt;&lt;span style=&quot;color: rgb(241 , 70 , 104) ; font-size: 14px ; background-color: rgb(245 , 245 , 245)&quot;&gt;&lt;b&gt;#bfc0c4&lt;/b&gt;&lt;/span&gt;&lt;/p&gt;" style="rounded=0;whiteSpace=wrap;html=1;fillColor=#FFFFFF;strokeColor=#bfc0c4;" parent="1" vertex="1">
                    <mxGeometry x="1125" y="-640" width="240" height="60" as="geometry"/>
                </mxCell>
                <mxCell id="279" value="" style="rounded=0;whiteSpace=wrap;html=1;strokeColor=#030b17;fillColor=#ffffff;" parent="1" vertex="1">
                    <mxGeometry x="1035" y="-560" width="90" height="60" as="geometry"/>
                </mxCell>
                <mxCell id="288" value="" style="edgeStyle=orthogonalEdgeStyle;rounded=0;orthogonalLoop=1;jettySize=auto;html=1;strokeColor=#000000;" parent="1" source="280" target="287" edge="1">
                    <mxGeometry relative="1" as="geometry"/>
                </mxCell>
                <mxCell id="280" value="&lt;span style=&quot;color: rgb(241 , 70 , 104) ; font-size: 14px&quot;&gt;&lt;b&gt;#ffffff&lt;/b&gt;&lt;/span&gt;&lt;b&gt;&lt;br&gt;&lt;/b&gt;" style="rounded=0;whiteSpace=wrap;html=1;fillColor=#FFFFFF;strokeColor=#030b17;" parent="1" vertex="1">
                    <mxGeometry x="1125" y="-560" width="240" height="60" as="geometry"/>
                </mxCell>
                <mxCell id="281" value="" style="rounded=0;whiteSpace=wrap;html=1;strokeColor=#121825;fillColor=#121825;" parent="1" vertex="1">
                    <mxGeometry x="1035" y="-480" width="90" height="60" as="geometry"/>
                </mxCell>
                <mxCell id="284" value="" style="edgeStyle=orthogonalEdgeStyle;rounded=0;orthogonalLoop=1;jettySize=auto;html=1;strokeColor=#000000;" parent="1" source="282" target="283" edge="1">
                    <mxGeometry relative="1" as="geometry"/>
                </mxCell>
                <mxCell id="282" value="&lt;p&gt;&lt;span style=&quot;color: rgb(241 , 70 , 104) ; font-size: 14px ; background-color: rgb(245 , 245 , 245)&quot;&gt;&lt;b&gt;#121825&lt;/b&gt;&lt;/span&gt;&lt;/p&gt;" style="rounded=0;whiteSpace=wrap;html=1;fillColor=#FFFFFF;strokeColor=#121825;" parent="1" vertex="1">
                    <mxGeometry x="1125" y="-480" width="240" height="60" as="geometry"/>
                </mxCell>
                <mxCell id="283" value="&lt;font color=&quot;#080808&quot;&gt;- menu hover background&lt;br&gt;&lt;/font&gt;" style="whiteSpace=wrap;html=1;rounded=0;strokeColor=#121825;fillColor=#FFFFFF;" parent="1" vertex="1">
                    <mxGeometry x="1460" y="-480" width="120" height="60" as="geometry"/>
                </mxCell>
                <mxCell id="285" value="&lt;font color=&quot;#000000&quot;&gt;text-color 1&lt;br&gt;(header, footer, card-title)&lt;br&gt;&lt;/font&gt;" style="whiteSpace=wrap;html=1;rounded=0;strokeColor=#000000;fillColor=#FFFFFF;" parent="1" vertex="1">
                    <mxGeometry x="1460" y="-640" width="120" height="60" as="geometry"/>
                </mxCell>
                <mxCell id="287" value="&lt;font color=&quot;#080808&quot;&gt;Carousel text&lt;/font&gt;" style="whiteSpace=wrap;html=1;rounded=0;strokeColor=#030b17;fillColor=#FFFFFF;" parent="1" vertex="1">
                    <mxGeometry x="1460" y="-560" width="120" height="60" as="geometry"/>
                </mxCell>
                <mxCell id="289" value="&lt;font color=&quot;#000000&quot;&gt;Carousel Background&lt;/font&gt;" style="whiteSpace=wrap;html=1;rounded=0;strokeColor=#030b17;fillColor=#FFFFFF;" parent="1" vertex="1">
                    <mxGeometry x="1460" y="-718" width="120" height="60" as="geometry"/>
                </mxCell>
                <mxCell id="291" value="&lt;font color=&quot;#050505&quot;&gt;Header background&lt;/font&gt;" style="whiteSpace=wrap;html=1;rounded=0;strokeColor=#141A28;fillColor=#FFFFFF;align=left;" parent="1" vertex="1">
                    <mxGeometry x="1460" y="-960" width="120" height="60" as="geometry"/>
                </mxCell>
                <mxCell id="293" value="&lt;font color=&quot;#000000&quot;&gt;Subscribe button&lt;br&gt;(CTA)&lt;br&gt;&lt;/font&gt;" style="whiteSpace=wrap;html=1;rounded=0;strokeColor=#1f80e0;fillColor=#FFFFFF;" parent="1" vertex="1">
                    <mxGeometry x="1460" y="-880" width="120" height="60" as="geometry"/>
                </mxCell>
                <mxCell id="295" value="" style="rounded=0;whiteSpace=wrap;html=1;strokeColor=#0c111b;fillColor=#0c111b;" parent="1" vertex="1">
                    <mxGeometry x="1035" y="-400" width="90" height="60" as="geometry"/>
                </mxCell>
                <mxCell id="296" value="" style="edgeStyle=orthogonalEdgeStyle;rounded=0;orthogonalLoop=1;jettySize=auto;html=1;strokeColor=#000000;" parent="1" source="297" target="298" edge="1">
                    <mxGeometry relative="1" as="geometry"/>
                </mxCell>
                <mxCell id="297" value="&lt;p&gt;&lt;span style=&quot;color: rgb(241 , 70 , 104) ; font-size: 14px ; background-color: rgb(245 , 245 , 245)&quot;&gt;&lt;b&gt;#0c111b&lt;/b&gt;&lt;/span&gt;&lt;br&gt;&lt;/p&gt;" style="rounded=0;whiteSpace=wrap;html=1;fillColor=#FFFFFF;strokeColor=#0c111b;" parent="1" vertex="1">
                    <mxGeometry x="1125" y="-400" width="240" height="60" as="geometry"/>
                </mxCell>
                <mxCell id="298" value="&lt;font color=&quot;#080808&quot;&gt;body background&lt;br&gt;-gradient 2&lt;br&gt;&lt;/font&gt;" style="whiteSpace=wrap;html=1;rounded=0;strokeColor=#121825;fillColor=#FFFFFF;" parent="1" vertex="1">
                    <mxGeometry x="1460" y="-400" width="120" height="60" as="geometry"/>
                </mxCell>
                <mxCell id="299" value="div - left-nav&lt;br&gt;flex dir - row" style="whiteSpace=wrap;html=1;rounded=0;strokeColor=#FFFFFF;align=left;" vertex="1" parent="1">
                    <mxGeometry x="130" y="-513.08" width="120" height="60" as="geometry"/>
                </mxCell>
                <mxCell id="300" value="" style="edgeStyle=orthogonalEdgeStyle;rounded=0;orthogonalLoop=1;jettySize=auto;html=1;exitX=1;exitY=0.5;exitDx=0;exitDy=0;" edge="1" parent="1" source="114" target="299">
                    <mxGeometry relative="1" as="geometry"/>
                </mxCell>
                <mxCell id="301" value="div - right nav&lt;br&gt;space-between" style="whiteSpace=wrap;html=1;rounded=0;strokeColor=#FFFFFF;" vertex="1" parent="1">
                    <mxGeometry x="431" y="-549.995" width="120" height="60" as="geometry"/>
                </mxCell>
                <mxCell id="302" value="" style="edgeStyle=orthogonalEdgeStyle;rounded=0;orthogonalLoop=1;jettySize=auto;html=1;" edge="1" parent="1" source="105" target="301">
                    <mxGeometry relative="1" as="geometry"/>
                </mxCell>
                <mxCell id="303" value="&lt;div&gt;&lt;span&gt;label&lt;/span&gt;&lt;/div&gt;&lt;span style=&quot;white-space: pre&quot;&gt;&lt;div&gt;&lt;span&gt;&#9;&lt;/span&gt;&lt;span style=&quot;white-space: normal&quot;&gt;- input&lt;/span&gt;&lt;/div&gt;&lt;/span&gt;&lt;div&gt;&lt;span&gt;&lt;span style=&quot;white-space: pre&quot;&gt;&#9;&lt;/span&gt;- search icon&lt;/span&gt;&lt;/div&gt;" style="whiteSpace=wrap;html=1;rounded=0;strokeColor=#FFFFFF;align=left;" vertex="1" parent="1">
                    <mxGeometry x="331" y="-459.99692307692305" width="120" height="60" as="geometry"/>
                </mxCell>
                <mxCell id="304" value="" style="edgeStyle=orthogonalEdgeStyle;rounded=0;orthogonalLoop=1;jettySize=auto;html=1;" edge="1" parent="1" source="115" target="303">
                    <mxGeometry relative="1" as="geometry"/>
                </mxCell>
                <mxCell id="305" value="button" style="whiteSpace=wrap;html=1;rounded=0;strokeColor=#FFFFFF;" vertex="1" parent="1">
                    <mxGeometry x="506" y="-459.99692307692305" width="120" height="60" as="geometry"/>
                </mxCell>
                <mxCell id="306" value="" style="edgeStyle=orthogonalEdgeStyle;rounded=0;orthogonalLoop=1;jettySize=auto;html=1;" edge="1" parent="1" source="116" target="305">
                    <mxGeometry relative="1" as="geometry"/>
                </mxCell>
                <mxCell id="311" value="" style="edgeStyle=orthogonalEdgeStyle;rounded=0;orthogonalLoop=1;jettySize=auto;html=1;" edge="1" parent="1" source="117" target="305">
                    <mxGeometry relative="1" as="geometry">
                        <Array as="points">
                            <mxPoint x="666" y="-430"/>
                        </Array>
                    </mxGeometry>
                </mxCell>
                <mxCell id="312" value="div - header-wrap&lt;br&gt;&lt;br&gt;justify content - center&lt;br&gt;&lt;br&gt;flex-direction: row" style="whiteSpace=wrap;html=1;rounded=0;" vertex="1" parent="1">
                    <mxGeometry x="-679" y="-560" width="120" height="100" as="geometry"/>
                </mxCell>
                <mxCell id="313" value="" style="edgeStyle=orthogonalEdgeStyle;rounded=0;orthogonalLoop=1;jettySize=auto;html=1;" edge="1" parent="1" source="103" target="312">
                    <mxGeometry relative="1" as="geometry"/>
                </mxCell>
                <mxCell id="314" value="&lt;font color=&quot;#000000&quot;&gt;Background color 2&lt;br&gt;- gradient 1&lt;br&gt;&lt;/font&gt;" style="whiteSpace=wrap;html=1;rounded=0;strokeColor=#192133;fillColor=#FFFFFF;" vertex="1" parent="1">
                    <mxGeometry x="1460" y="-800" width="120" height="60" as="geometry"/>
                </mxCell>
                <mxCell id="316" value="svg&lt;br&gt;&lt;br&gt;200 x 150" style="rounded=0;whiteSpace=wrap;html=1;strokeColor=#FFFFFF;" vertex="1" parent="1">
                    <mxGeometry x="-439" y="-529.2307692307692" width="130" height="76.15384615384613" as="geometry"/>
                </mxCell>
                <mxCell id="317" value="" style="edgeStyle=orthogonalEdgeStyle;rounded=0;orthogonalLoop=1;jettySize=auto;html=1;strokeColor=#FFFFFF;" edge="1" parent="1" source="107" target="316">
                    <mxGeometry relative="1" as="geometry"/>
                </mxCell>
                <mxCell id="319" style="edgeStyle=orthogonalEdgeStyle;rounded=0;orthogonalLoop=1;jettySize=auto;html=1;strokeColor=#FFFFFF;" edge="1" parent="1" source="114">
                    <mxGeometry relative="1" as="geometry">
                        <mxPoint x="76" y="-450" as="targetPoint"/>
                    </mxGeometry>
                </mxCell>
                <mxCell id="320" value="svg&lt;br&gt;&lt;br&gt;40 x 70" style="whiteSpace=wrap;html=1;" vertex="1" parent="1">
                    <mxGeometry x="-9" y="-513.08" width="120" height="60" as="geometry"/>
                </mxCell>
                <mxCell id="323" value="&#10;&#10;&lt;span style=&quot;color: rgb(240, 240, 240); font-family: helvetica; font-size: 12px; font-style: normal; font-weight: 400; letter-spacing: normal; text-align: center; text-indent: 0px; text-transform: none; word-spacing: 0px; background-color: rgb(42, 42, 42); display: inline; float: none;&quot;&gt;div - carousel wrap&lt;/span&gt;&lt;br style=&quot;color: rgb(240, 240, 240); font-family: helvetica; font-size: 12px; font-style: normal; font-weight: 400; letter-spacing: normal; text-align: center; text-indent: 0px; text-transform: none; word-spacing: 0px; background-color: rgb(42, 42, 42);&quot;&gt;&lt;br style=&quot;color: rgb(240, 240, 240); font-family: helvetica; font-size: 12px; font-style: normal; font-weight: 400; letter-spacing: normal; text-align: center; text-indent: 0px; text-transform: none; word-spacing: 0px; background-color: rgb(42, 42, 42);&quot;&gt;&lt;span style=&quot;color: rgb(240, 240, 240); font-family: helvetica; font-size: 12px; font-style: normal; font-weight: 400; letter-spacing: normal; text-align: center; text-indent: 0px; text-transform: none; word-spacing: 0px; background-color: rgb(42, 42, 42); display: inline; float: none;&quot;&gt;align-center&lt;/span&gt;&lt;br style=&quot;color: rgb(240, 240, 240); font-family: helvetica; font-size: 12px; font-style: normal; font-weight: 400; letter-spacing: normal; text-align: center; text-indent: 0px; text-transform: none; word-spacing: 0px; background-color: rgb(42, 42, 42);&quot;&gt;&lt;span style=&quot;color: rgb(240, 240, 240); font-family: helvetica; font-size: 12px; font-style: normal; font-weight: 400; letter-spacing: normal; text-align: center; text-indent: 0px; text-transform: none; word-spacing: 0px; background-color: rgb(42, 42, 42); display: inline; float: none;&quot;&gt;justify-center&lt;/span&gt;&#10;&#10;" style="whiteSpace=wrap;html=1;rounded=0;strokeColor=#FFFFFF;" vertex="1" parent="1">
                    <mxGeometry x="-799" y="-220" width="120" height="60" as="geometry"/>
                </mxCell>
                <mxCell id="328" value="div - carousel&lt;br&gt;&lt;br&gt;width: (100% - 150px)&lt;br&gt;padding: 60px" style="whiteSpace=wrap;html=1;" vertex="1" parent="1">
                    <mxGeometry x="-800" y="-30" width="120" height="60" as="geometry"/>
                </mxCell>
                <mxCell id="330" value="&lt;br&gt;div - carousel-image&lt;br&gt;width: 58%&lt;br&gt;overflow: auto" style="whiteSpace=wrap;html=1;" vertex="1" parent="1">
                    <mxGeometry x="800" y="-120" width="120" height="60" as="geometry"/>
                </mxCell>
                <mxCell id="332" value="div: carousel-text&lt;br&gt;width: 42%" style="whiteSpace=wrap;html=1;" vertex="1" parent="1">
                    <mxGeometry x="-750" y="-120" width="120" height="60" as="geometry"/>
                </mxCell>
                <mxCell id="333" style="edgeStyle=orthogonalEdgeStyle;rounded=0;orthogonalLoop=1;jettySize=auto;html=1;exitX=0;exitY=0.5;exitDx=0;exitDy=0;strokeColor=#FFFFFF;" edge="1" parent="1" source="127">
                    <mxGeometry relative="1" as="geometry">
                        <mxPoint x="-640" y="290" as="targetPoint"/>
                    </mxGeometry>
                </mxCell>
                <mxCell id="334" value="div: tray&lt;br&gt;width: 100% - 150px&lt;br&gt;padding: 30px&lt;br&gt;" style="whiteSpace=wrap;html=1;" vertex="1" parent="1">
                    <mxGeometry x="-760" y="260" width="120" height="60" as="geometry"/>
                </mxCell>
                <mxCell id="335" style="edgeStyle=orthogonalEdgeStyle;rounded=0;orthogonalLoop=1;jettySize=auto;html=1;exitX=0;exitY=0.75;exitDx=0;exitDy=0;strokeColor=#FFFFFF;" edge="1" parent="1" source="131">
                    <mxGeometry relative="1" as="geometry">
                        <mxPoint x="-660" y="420" as="targetPoint"/>
                    </mxGeometry>
                </mxCell>
                <mxCell id="336" value="div card&lt;br&gt;width: 300px&lt;br&gt;hwight: 500px&lt;br&gt;margin-right: 15px" style="whiteSpace=wrap;html=1;" vertex="1" parent="1">
                    <mxGeometry x="-720" y="420" width="120" height="60" as="geometry"/>
                </mxCell>
                <mxCell id="337" value="&lt;font style=&quot;font-size: 48px&quot;&gt;Disney+ Hostar Home Page Design&lt;/font&gt;" style="whiteSpace=wrap;html=1;" vertex="1" parent="1">
                    <mxGeometry x="-660" y="-950" width="838" height="220" as="geometry"/>
                </mxCell>
                <mxCell id="338" value="div: footer-wrap&lt;br&gt;&lt;br&gt;space-between" style="whiteSpace=wrap;html=1;rounded=0;strokeColor=#FFFFFF;" vertex="1" parent="1">
                    <mxGeometry x="-770" y="2330" width="120" height="60" as="geometry"/>
                </mxCell>
                <mxCell id="340" value="div: footer left&lt;br&gt;&lt;br&gt;padding: 0 60px 0" style="whiteSpace=wrap;html=1;rounded=0;strokeColor=#FFFFFF;" vertex="1" parent="1">
                    <mxGeometry x="-770" y="2455" width="120" height="60" as="geometry"/>
                </mxCell>
                <mxCell id="342" value="div: footer-right&lt;br&gt;space-between" style="whiteSpace=wrap;html=1;rounded=0;strokeColor=#FFFFFF;" vertex="1" parent="1">
                    <mxGeometry x="830" y="2455" width="120" height="60" as="geometry"/>
                </mxCell>
                <mxCell id="344" value="&lt;font style=&quot;font-size: 18px&quot;&gt;&amp;gt;&lt;/font&gt;" style="rounded=0;whiteSpace=wrap;html=1;strokeColor=#FFFFFF;" vertex="1" parent="1">
                    <mxGeometry x="686" y="-210" width="30" height="190" as="geometry"/>
                </mxCell>
                <mxCell id="345" value="&lt;font style=&quot;font-size: 18px&quot;&gt;&amp;lt;&lt;/font&gt;" style="rounded=0;whiteSpace=wrap;html=1;strokeColor=#FFFFFF;" vertex="1" parent="1">
                    <mxGeometry x="-519" y="-180" width="30" height="190" as="geometry"/>
                </mxCell>
                <mxCell id="331" style="edgeStyle=orthogonalEdgeStyle;rounded=0;orthogonalLoop=1;jettySize=auto;html=1;strokeColor=#FFFFFF;" edge="1" parent="1">
                    <mxGeometry relative="1" as="geometry">
                        <mxPoint x="-630" y="-90" as="targetPoint"/>
                        <mxPoint x="-484" y="-90" as="sourcePoint"/>
                    </mxGeometry>
                </mxCell>
                <mxCell id="324" value="" style="edgeStyle=orthogonalEdgeStyle;rounded=0;orthogonalLoop=1;jettySize=auto;html=1;strokeColor=#FFFFFF;" edge="1" parent="1" source="120" target="323">
                    <mxGeometry relative="1" as="geometry">
                        <Array as="points">
                            <mxPoint x="-700" y="-210"/>
                        </Array>
                    </mxGeometry>
                </mxCell>
                <mxCell id="327" style="edgeStyle=orthogonalEdgeStyle;rounded=0;orthogonalLoop=1;jettySize=auto;html=1;exitX=0;exitY=0.75;exitDx=0;exitDy=0;strokeColor=#FFFFFF;" edge="1" parent="1" source="121">
                    <mxGeometry relative="1" as="geometry">
                        <mxPoint x="-680" y="5" as="targetPoint"/>
                    </mxGeometry>
                </mxCell>
                <mxCell id="329" style="edgeStyle=orthogonalEdgeStyle;rounded=0;orthogonalLoop=1;jettySize=auto;html=1;exitX=1;exitY=0.5;exitDx=0;exitDy=0;strokeColor=#FFFFFF;" edge="1" parent="1" source="122">
                    <mxGeometry relative="1" as="geometry">
                        <mxPoint x="800" y="-90" as="targetPoint"/>
                    </mxGeometry>
                </mxCell>
                <mxCell id="346" value="" style="edgeStyle=orthogonalEdgeStyle;rounded=0;orthogonalLoop=1;jettySize=auto;html=1;fontColor=#121212;strokeColor=#FFFFFF;" edge="1" parent="1" source="109">
                    <mxGeometry relative="1" as="geometry">
                        <mxPoint x="-250" y="-453" as="targetPoint"/>
                    </mxGeometry>
                </mxCell>
                <mxCell id="347" value="div - menu-element&lt;br&gt;&lt;br&gt;padding: 30px 15px" style="whiteSpace=wrap;html=1;" vertex="1" parent="1">
                    <mxGeometry x="-269" y="-513.08" width="120" height="60" as="geometry"/>
                </mxCell>
            </root>
        </mxGraphModel>
    </diagram>
</mxfile>